<?xml version="1.0" encoding="utf-8"?>
<!-- Generator: Adobe Illustrator 19.0.0, SVG Export Plug-In . SVG Version: 6.00 Build 0)  -->
<svg version="1.1" id="Layer_1" xmlns="http://www.w3.org/2000/svg" xmlns:xlink="http://www.w3.org/1999/xlink" x="0px" y="0px"
	 width="200px" height="100px" viewBox="-205 347 200 100" style="enable-background:new -205 347 200 100;" xml:space="preserve">
<style type="text/css">
	.st0{fill:#F5CE00;}
	.st1{fill:#ED1C24;}
</style>
<g>
	<path d="M-147.5,370.7v-10h4.9l-0.1,1h-3.6v3.7h3.3v1h-3.3v4.3h-1.2V370.7z M-136.9,366v1.3h-3.7c0,0.9,0.2,1.5,0.5,1.8
		c0.4,0.4,0.7,0.6,1.3,0.6c0.2,0,0.4,0,0.6-0.1c0.1,0,0.4-0.1,0.5-0.1c0.1-0.1,0.2-0.1,0.2-0.2l0.1-0.1l0.5,0.9l-0.2,0.2
		c-0.1,0.1-0.2,0.2-0.4,0.2c-0.1,0.1-0.4,0.1-0.6,0.2c-0.2,0.1-0.5,0.1-0.9,0.1c-0.5,0-0.9-0.1-1.2-0.2c-0.4-0.1-0.6-0.4-0.9-0.7
		c-0.2-0.4-0.5-0.7-0.6-1.2c-0.1-0.5-0.2-1-0.2-1.7c0-0.6,0.1-1.1,0.2-1.6c0.1-0.5,0.4-0.9,0.6-1.1c0.2-0.2,0.5-0.5,0.9-0.6
		c0.4-0.1,0.6-0.2,1-0.2c0.6,0,1.2,0.2,1.6,0.6C-137,364.5-136.9,365.1-136.9,366 M-139.1,364.4c-0.4,0-0.7,0.1-1,0.5
		s-0.4,0.9-0.5,1.5h2.6v-0.2v-0.2c0-0.5-0.1-0.9-0.2-1.1C-138.5,364.5-138.7,364.4-139.1,364.4 M-135.6,367.2c0-0.7,0.1-1.3,0.2-1.8
		c0.1-0.5,0.4-0.9,0.7-1.1c0.4-0.2,0.6-0.5,1-0.6c0.4-0.1,0.7-0.1,1.1-0.1h0.6c0.1,0,0.2,0.1,0.4,0.1v-3.3l1.2-0.1v10.4h-1.1v-0.7
		c0,0-0.1,0.1-0.1,0.2l-0.4,0.4c-0.1,0.1-0.4,0.2-0.5,0.2c-0.2,0.1-0.5,0.1-0.7,0.1c-0.4,0-0.6-0.1-1-0.2c-0.2-0.1-0.6-0.4-0.7-0.6
		c-0.2-0.2-0.4-0.6-0.5-1.1C-135.5,368.4-135.6,367.8-135.6,367.2 M-132.8,369.8c0.2,0,0.4,0,0.5-0.1c0.1,0,0.2-0.1,0.4-0.1
		c0.1-0.1,0.2-0.1,0.2-0.2c0.1-0.1,0.1-0.1,0.1-0.2v-4.3c-0.1-0.1-0.2-0.1-0.4-0.1s-0.4-0.1-0.5-0.1c-0.2,0-0.5,0-0.7,0.1
		c-0.2,0.1-0.5,0.2-0.6,0.5c-0.1,0.2-0.4,0.5-0.4,0.9c0,0.4-0.1,0.7-0.1,1.2s0,0.9,0.1,1.2c0.1,0.4,0.2,0.6,0.4,0.7
		c0.1,0.2,0.4,0.4,0.5,0.5C-133.2,369.7-133.1,369.8-132.8,369.8 M-124,366v1.3h-3.6c0,0.9,0.2,1.5,0.5,1.8c0.4,0.4,0.7,0.6,1.3,0.6
		c0.2,0,0.4,0,0.6-0.1c0.1,0,0.4-0.1,0.5-0.1c0.1-0.1,0.2-0.1,0.4-0.2l0.1-0.1l0.5,0.9l-0.2,0.2c-0.1,0.1-0.2,0.2-0.4,0.2
		c-0.1,0.1-0.4,0.1-0.6,0.2c-0.2,0.1-0.5,0.1-0.9,0.1c-0.5,0-0.9-0.1-1.2-0.2c-0.4-0.1-0.6-0.4-0.9-0.7c-0.2-0.4-0.5-0.7-0.6-1.2
		c-0.1-0.5-0.2-1-0.2-1.7c0-0.6,0.1-1.1,0.2-1.6c0.1-0.5,0.4-0.9,0.6-1.1c0.2-0.2,0.5-0.5,0.9-0.6c0.4-0.1,0.6-0.2,1-0.2
		c0.6,0,1.2,0.2,1.6,0.6C-124.2,364.5-124,365.1-124,366 M-126.2,364.4c-0.4,0-0.7,0.1-1,0.5c-0.2,0.4-0.4,0.9-0.5,1.5h2.6v-0.2
		v-0.2c0-0.5-0.1-0.9-0.2-1.1C-125.6,364.5-125.8,364.4-126.2,364.4 M-119.3,364.7c0,0-0.1,0-0.2-0.1h-0.4c-0.4,0-0.6,0.1-0.9,0.2
		c-0.2,0.2-0.4,0.4-0.5,0.6v5.1h-1.2v-7h1.1v1c0-0.1,0.1-0.2,0.2-0.4c0.1-0.1,0.1-0.2,0.2-0.4c0.1-0.1,0.2-0.1,0.4-0.2
		c0.1,0,0.4-0.1,0.6-0.1h0.4c0.1,0,0.1,0,0.2,0.1V364.7z M-118.7,368.8c0-0.4,0.1-0.7,0.2-1c0.1-0.2,0.4-0.5,0.6-0.6
		c0.2-0.1,0.6-0.2,1-0.4c0.4-0.1,0.7-0.1,1.1-0.1h0.4v-0.6c0-0.6-0.1-1-0.4-1.2c-0.2-0.2-0.5-0.4-0.9-0.4s-0.6,0.1-0.9,0.2
		c-0.2,0.1-0.4,0.2-0.6,0.4l-0.4-0.9l0.2-0.2c0.1-0.1,0.2-0.2,0.5-0.2c0.1-0.1,0.4-0.1,0.6-0.2c0.2,0,0.5-0.1,0.7-0.1
		c0.7,0,1.2,0.2,1.6,0.6c0.4,0.4,0.6,1,0.6,2v4.7h-1.1v-0.7c0,0.1-0.1,0.2-0.1,0.2c-0.1,0.1-0.1,0.2-0.2,0.4
		c-0.1,0.1-0.2,0.1-0.4,0.2c-0.1,0.1-0.4,0.1-0.6,0.1c-0.2,0-0.5,0-0.7-0.1s-0.4-0.2-0.6-0.4c-0.1-0.1-0.2-0.4-0.4-0.6
		C-118.6,369.4-118.7,369.2-118.7,368.8 M-116.5,369.8c0.1,0,0.4,0,0.5-0.1c0.1-0.1,0.2-0.1,0.4-0.1l0.2-0.2
		c0.1-0.1,0.1-0.1,0.1-0.2v-1.5h-0.4c-0.6,0-1,0.1-1.2,0.2c-0.2,0.1-0.5,0.5-0.5,0.9s0.1,0.6,0.2,0.9
		C-117.1,369.7-116.9,369.8-116.5,369.8 M-111.2,368.9c0,0.2,0,0.5,0.1,0.6c0.1,0.1,0.2,0.1,0.5,0.1h0.4l0.1,0.9
		c0,0-0.1,0.1-0.4,0.1c-0.1,0-0.4,0.1-0.6,0.1c-0.4,0-0.7-0.1-1-0.4c-0.2-0.2-0.4-0.7-0.4-1.3v-8.8l1.2-0.1L-111.2,368.9
		L-111.2,368.9z M-97.4,360.6v10h-1.2V365v-0.9v-0.6v-0.5c0,0.2-0.1,0.6-0.2,1.1s-0.4,1-0.5,1.6l-1.7,4.9h-1l-1.7-4.9
		c-0.2-0.6-0.4-1.1-0.5-1.6s-0.2-0.9-0.2-1.1v7.6h-1.2v-10h1.5l2.3,7c0.1,0.4,0.2,0.6,0.2,1c0.1,0.4,0.1,0.6,0.1,0.7
		c0-0.2,0-0.5,0.1-0.7s0.1-0.6,0.2-1l2.3-7H-97.4L-97.4,360.6z M-94.2,370.7h-1.2v-7h1.2V370.7z M-94.7,362c-0.2,0-0.5-0.1-0.6-0.2
		c-0.1-0.1-0.2-0.4-0.2-0.6s0.1-0.5,0.2-0.6c0.1-0.1,0.4-0.2,0.6-0.2c0.2,0,0.4,0.1,0.6,0.2c0.1,0.1,0.2,0.4,0.2,0.6
		s-0.1,0.5-0.2,0.6C-94.3,361.8-94.5,362-94.7,362 M-88.6,370.7v-4.5c0-0.6-0.1-1-0.2-1.2c-0.2-0.2-0.5-0.4-0.9-0.4
		c-0.4,0-0.6,0.1-0.9,0.2c-0.2,0.1-0.4,0.4-0.6,0.5v5.4h-1.2v-7h1.1v0.7l0.2-0.2l0.4-0.4c0.1-0.1,0.4-0.2,0.6-0.2
		c0.2-0.1,0.5-0.1,0.7-0.1c0.4,0,0.6,0,0.9,0.1c0.2,0.1,0.5,0.2,0.6,0.5c0.1,0.2,0.4,0.5,0.4,0.7c0.1,0.4,0.1,0.7,0.1,1.2v4.5h-1.2
		L-88.6,370.7z M-84.4,370.7h-1.2v-7h1.2V370.7z M-85,362c-0.2,0-0.5-0.1-0.6-0.2c-0.1-0.1-0.2-0.4-0.2-0.6s0.1-0.5,0.2-0.6
		c0.1-0.1,0.4-0.2,0.6-0.2s0.4,0.1,0.6,0.2c0.1,0.1,0.2,0.4,0.2,0.6s-0.1,0.5-0.2,0.6C-84.5,361.8-84.8,362-85,362 M-79.6,365
		l-0.4-0.4c-0.2-0.1-0.5-0.2-0.9-0.2s-0.5,0.1-0.7,0.2c-0.1,0.1-0.2,0.4-0.2,0.5c0,0.2,0.1,0.5,0.2,0.6c0.1,0.1,0.4,0.4,0.7,0.5
		l0.5,0.2c0.5,0.2,0.9,0.6,1.1,0.9c0.2,0.4,0.4,0.7,0.4,1.2c0,0.6-0.2,1-0.6,1.3c-0.4,0.4-1,0.6-1.6,0.6c-0.2,0-0.5,0-0.7-0.1
		c-0.2,0-0.4-0.1-0.6-0.2c-0.1-0.1-0.2-0.1-0.4-0.2c-0.1-0.1-0.2-0.1-0.2-0.2l0.6-1l0.2,0.2l0.2,0.2c0.1,0.1,0.2,0.1,0.4,0.1
		c0.1,0,0.4,0.1,0.5,0.1c0.4,0,0.6-0.1,0.9-0.2c0.2-0.1,0.2-0.4,0.2-0.6c0-0.1,0-0.4-0.1-0.5c0-0.1-0.1-0.2-0.2-0.4
		c-0.1-0.1-0.2-0.2-0.4-0.2c-0.1-0.1-0.2-0.1-0.5-0.2l-0.5-0.2c-0.5-0.2-0.7-0.6-1-0.9c-0.2-0.4-0.4-0.7-0.4-1.2
		c0-0.2,0-0.5,0.1-0.7s0.2-0.4,0.5-0.6c0.2-0.2,0.4-0.2,0.6-0.4c0.2-0.1,0.5-0.1,0.7-0.1s0.5,0,0.7,0.1c0.2,0,0.4,0.1,0.5,0.2
		c0.1,0.1,0.2,0.1,0.4,0.2l0.2,0.2L-79.6,365L-79.6,365z M-74.5,364.7H-76v3.9c0,0.5,0.1,0.9,0.2,1c0.1,0.1,0.4,0.2,0.6,0.2
		c0.1,0,0.4,0,0.5-0.1c0.1,0,0.2-0.1,0.2-0.1l0.1,1c0,0-0.1,0.1-0.4,0.1c-0.2,0.1-0.5,0.1-0.7,0.1c-0.6,0-1.1-0.1-1.3-0.5
		c-0.2-0.4-0.5-0.9-0.5-1.7v-4H-78v-0.7l0.9-0.1l0.1-2h1.1v2h1.7L-74.5,364.7z M-70.1,364.7c0,0-0.1,0-0.2-0.1h-0.4
		c-0.4,0-0.6,0.1-0.9,0.2c-0.2,0.2-0.4,0.4-0.5,0.6v5.1h-1.2v-7h1.1v1c0-0.1,0.1-0.2,0.2-0.4c0.1-0.1,0.1-0.2,0.2-0.4
		c0.1-0.1,0.2-0.1,0.4-0.2c0.1,0,0.4-0.1,0.6-0.1h0.4c0.1,0,0.1,0,0.2,0.1V364.7z M-64.3,363.7l-2.2,7.4c-0.2,0.9-0.6,1.5-1,2
		s-0.9,0.6-1.6,0.6h-0.4c-0.1,0-0.1,0-0.2-0.1v-1c0,0,0.1,0,0.2,0.1h0.4c0.4,0,0.7-0.1,1-0.4c0.2-0.2,0.4-0.6,0.6-1.2l0.1-0.4
		l-2.2-7h1.2l1.1,3.9c0.1,0.4,0.2,0.7,0.2,1.1c0.1,0.4,0.1,0.6,0.1,1c0-0.2,0.1-0.6,0.1-1c0.1-0.4,0.1-0.7,0.2-1.1l1-3.9
		C-65.5,363.7-64.3,363.7-64.3,363.7z M-144.8,379.4h-1.5v6h-1.2v-6h-0.9v-0.7l0.9-0.1v-1.3c0-0.4,0-0.7,0.1-1
		c0.1-0.2,0.2-0.5,0.4-0.6c0.1-0.1,0.4-0.2,0.6-0.4c0.2-0.1,0.5-0.1,0.7-0.1s0.5,0,0.6,0.1c0.1,0.1,0.2,0.1,0.4,0.1l-0.2,1
		c0,0-0.1-0.1-0.2-0.1c-0.1,0-0.2-0.1-0.4-0.1c-0.2,0-0.5,0.1-0.6,0.2c-0.1,0.1-0.2,0.5-0.2,1v1.2h1.6L-144.8,379.4L-144.8,379.4z
		 M-144.1,381.8c0-0.6,0.1-1.2,0.2-1.7c0.1-0.5,0.4-0.9,0.6-1.1c0.2-0.2,0.6-0.5,0.9-0.6c0.4-0.1,0.7-0.2,1.1-0.2
		c0.4,0,0.7,0.1,1.1,0.2c0.4,0.1,0.6,0.4,0.9,0.6c0.2,0.2,0.5,0.7,0.6,1.1c0.1,0.5,0.2,1,0.2,1.7c0,0.6-0.1,1.2-0.2,1.7
		c-0.1,0.5-0.4,0.9-0.6,1.1c-0.2,0.2-0.6,0.5-0.9,0.6c-0.4,0.1-0.7,0.2-1.1,0.2c-0.4,0-0.7-0.1-1.1-0.2c-0.4-0.1-0.6-0.4-0.9-0.6
		s-0.5-0.7-0.6-1.1C-144,383-144.1,382.5-144.1,381.8 M-139.8,381.8c0-1-0.1-1.6-0.4-2.1c-0.2-0.4-0.6-0.6-1.1-0.6
		c-0.5,0-0.9,0.2-1.1,0.6c-0.2,0.4-0.4,1.1-0.4,2.1c0,1,0.1,1.6,0.4,2s0.6,0.6,1.1,0.6c0.5,0,0.9-0.2,1.1-0.6
		S-139.8,382.8-139.8,381.8 M-133.9,379.4c0,0-0.1,0-0.2-0.1h-0.4c-0.4,0-0.6,0.1-0.9,0.2c-0.2,0.2-0.4,0.4-0.5,0.6v5.1h-1.2v-7h1.1
		v1c0-0.1,0.1-0.2,0.2-0.4c0.1-0.1,0.1-0.2,0.2-0.4c0.1-0.1,0.2-0.1,0.4-0.2c0.1,0,0.4-0.1,0.6-0.1h0.4c0.1,0,0.1,0,0.2,0.1V379.4z
		 M-125,376.3h-3.6v3.4h3.3v1h-3.3v3.6h3.9v1.1h-5.1v-10h4.9L-125,376.3z M-119.3,379.7l-0.1-0.1c-0.1,0-0.1-0.1-0.2-0.1
		c-0.1,0-0.2-0.1-0.4-0.1c-0.1,0-0.2-0.1-0.5-0.1s-0.5,0-0.7,0.1c-0.2,0.1-0.4,0.2-0.6,0.5l-0.4,0.7c-0.1,0.4-0.1,0.7-0.1,1.2
		s0,1,0.1,1.3c0.1,0.4,0.2,0.6,0.4,0.9c0.1,0.2,0.4,0.4,0.5,0.5c0.2,0.1,0.5,0.1,0.7,0.1c0.4,0,0.6-0.1,0.9-0.2
		c0.2-0.1,0.4-0.2,0.4-0.4l0.5,0.9l-0.2,0.2c-0.1,0.1-0.2,0.1-0.4,0.2c-0.1,0.1-0.4,0.1-0.5,0.2c-0.1,0.1-0.5,0.1-0.7,0.1
		c-0.4,0-0.7-0.1-1.1-0.2c-0.4-0.1-0.6-0.4-0.9-0.6c-0.2-0.2-0.5-0.6-0.6-1.1c-0.1-0.5-0.2-1.1-0.2-1.7c0-0.6,0.1-1.2,0.2-1.7
		s0.4-0.9,0.7-1.1c0.2-0.2,0.6-0.5,1-0.6c0.4-0.1,0.7-0.2,1.1-0.2c0.2,0,0.5,0,0.7,0.1c0.2,0,0.4,0.1,0.5,0.1
		c0.1,0.1,0.2,0.1,0.4,0.2l0.2,0.2L-119.3,379.7L-119.3,379.7z M-118.1,381.8c0-0.6,0.1-1.2,0.2-1.7s0.4-0.9,0.6-1.1
		c0.2-0.2,0.6-0.5,0.9-0.6c0.4-0.1,0.7-0.2,1.1-0.2c0.4,0,0.7,0.1,1.1,0.2c0.4,0.1,0.6,0.4,0.9,0.6c0.2,0.2,0.5,0.7,0.6,1.1
		c0.1,0.5,0.2,1,0.2,1.7c0,0.6-0.1,1.2-0.2,1.7s-0.4,0.9-0.6,1.1c-0.2,0.2-0.6,0.5-0.9,0.6c-0.4,0.1-0.7,0.2-1.1,0.2
		c-0.4,0-0.7-0.1-1.1-0.2c-0.4-0.1-0.6-0.4-0.9-0.6c-0.2-0.2-0.5-0.7-0.6-1.1C-118,383-118.1,382.5-118.1,381.8 M-113.7,381.8
		c0-1-0.1-1.6-0.4-2.1c-0.2-0.4-0.6-0.6-1.1-0.6c-0.5,0-0.9,0.2-1.1,0.6c-0.2,0.4-0.4,1.1-0.4,2.1c0,1,0.1,1.6,0.4,2
		c0.2,0.4,0.6,0.6,1.1,0.6c0.5,0,0.9-0.2,1.1-0.6C-113.9,383.4-113.7,382.8-113.7,381.8 M-107.2,385.4v-4.5c0-0.6-0.1-1-0.2-1.2
		c-0.2-0.2-0.5-0.4-0.9-0.4c-0.4,0-0.6,0.1-0.9,0.2c-0.2,0.1-0.4,0.4-0.6,0.5v5.4h-1.2v-7h1.1v0.7l0.2-0.2l0.4-0.4
		c0.1-0.1,0.4-0.2,0.6-0.2c0.2-0.1,0.5-0.1,0.7-0.1c0.4,0,0.6,0,0.9,0.1c0.2,0.1,0.5,0.2,0.6,0.5c0.1,0.2,0.4,0.5,0.4,0.7
		c0.1,0.4,0.1,0.7,0.1,1.2v4.5h-1.2L-107.2,385.4z M-104.6,381.8c0-0.6,0.1-1.2,0.2-1.7c0.1-0.5,0.4-0.9,0.6-1.1
		c0.2-0.2,0.6-0.5,0.9-0.6c0.4-0.1,0.7-0.2,1.1-0.2s0.7,0.1,1.1,0.2c0.4,0.1,0.6,0.4,0.9,0.6c0.2,0.2,0.5,0.7,0.6,1.1
		c0.1,0.5,0.2,1,0.2,1.7c0,0.6-0.1,1.2-0.2,1.7s-0.4,0.9-0.6,1.1c-0.2,0.2-0.6,0.5-0.9,0.6c-0.4,0.1-0.7,0.2-1.1,0.2
		s-0.7-0.1-1.1-0.2c-0.4-0.1-0.6-0.4-0.9-0.6s-0.5-0.7-0.6-1.1C-104.5,383-104.6,382.5-104.6,381.8 M-100.3,381.8
		c0-1-0.1-1.6-0.4-2.1c-0.2-0.4-0.6-0.6-1.1-0.6s-0.9,0.2-1.1,0.6c-0.2,0.4-0.4,1.1-0.4,2.1c0,1,0.1,1.6,0.4,2
		c0.2,0.4,0.6,0.6,1.1,0.6s0.9-0.2,1.1-0.6C-100.5,383.4-100.3,382.8-100.3,381.8 M-93.8,385.4v-4.5c0-0.6-0.1-1-0.2-1.2
		s-0.5-0.4-0.9-0.4c-0.2,0-0.4,0-0.5,0.1c-0.1,0-0.2,0.1-0.4,0.1s-0.2,0.1-0.2,0.2l-0.2,0.2v5.4h-1.2v-7h1.1v0.7
		c0-0.1,0.1-0.1,0.2-0.2l0.4-0.4c0.1-0.1,0.4-0.2,0.5-0.2c0.2-0.1,0.4-0.1,0.6-0.1c0.9,0,1.3,0.4,1.7,1c0.1-0.1,0.1-0.2,0.2-0.4
		l0.4-0.4c0.1-0.1,0.4-0.1,0.5-0.2c0.2,0,0.4-0.1,0.6-0.1c1.5,0,2.1,0.9,2.1,2.5v4.7h-1.2v-4.5c0-0.6-0.1-1-0.4-1.2
		c-0.2-0.2-0.5-0.4-0.9-0.4c-0.4,0-0.6,0.1-0.9,0.2c-0.2,0.1-0.4,0.4-0.5,0.5v5.4h-0.9L-93.8,385.4z M-86.1,385.4h-1.2v-7h1.2V385.4
		z M-86.7,376.7c-0.2,0-0.5-0.1-0.6-0.2c-0.1-0.1-0.2-0.4-0.2-0.6s0.1-0.5,0.2-0.6c0.1-0.1,0.4-0.2,0.6-0.2c0.2,0,0.4,0.1,0.6,0.2
		c0.1,0.1,0.2,0.4,0.2,0.6s-0.1,0.5-0.2,0.6C-86.3,376.5-86.5,376.7-86.7,376.7 M-80.4,379.7L-80.4,379.7c-0.2-0.1-0.2-0.2-0.4-0.2
		s-0.2-0.1-0.4-0.1c-0.1,0-0.2-0.1-0.5-0.1s-0.5,0-0.7,0.1c-0.2,0.1-0.4,0.2-0.6,0.5l-0.4,0.7c-0.1,0.4-0.1,0.7-0.1,1.2s0,1,0.1,1.3
		c0.1,0.4,0.2,0.6,0.4,0.9c0.1,0.2,0.4,0.4,0.5,0.5c0.2,0.1,0.5,0.1,0.7,0.1c0.4,0,0.6-0.1,0.9-0.2c0.2-0.1,0.4-0.2,0.4-0.4l0.5,0.9
		l-0.2,0.2c-0.1,0.1-0.2,0.1-0.4,0.2c-0.1,0.1-0.4,0.1-0.5,0.2c-0.2,0-0.5,0.1-0.7,0.1c-0.4,0-0.7-0.1-1.1-0.2
		c-0.4-0.1-0.6-0.4-0.9-0.6s-0.5-0.6-0.6-1.1c-0.1-0.5-0.2-1.1-0.2-1.7c0-0.6,0.1-1.2,0.2-1.7s0.4-0.9,0.7-1.1
		c0.2-0.2,0.6-0.5,1-0.6c0.4-0.1,0.7-0.2,1.1-0.2c0.2,0,0.5,0,0.7,0.1c0.2,0,0.4,0.1,0.5,0.1c0.1,0.1,0.2,0.1,0.4,0.2l0.2,0.2
		L-80.4,379.7L-80.4,379.7z M-75.8,380.3c0-1,0.1-1.7,0.4-2.5c0.2-0.6,0.5-1.2,1-1.6c0.4-0.4,0.9-0.7,1.3-0.9c0.5-0.2,1-0.2,1.5-0.2
		c0.4,0,0.7,0,1,0.1c0.2,0.1,0.5,0.1,0.7,0.2c0.2,0.1,0.4,0.2,0.5,0.4l0.2,0.2L-70,377l-0.2-0.2c-0.1-0.1-0.2-0.1-0.4-0.2
		c-0.1-0.1-0.2-0.1-0.5-0.2c-0.2-0.1-0.4-0.1-0.6-0.1c-0.4,0-0.7,0.1-1.1,0.2c-0.4,0.1-0.6,0.4-0.9,0.7c-0.2,0.4-0.5,0.7-0.6,1.2
		c-0.1,0.5-0.2,1.1-0.2,1.8s0.1,1.5,0.2,2c0.1,0.5,0.4,1,0.5,1.3c0.2,0.4,0.5,0.6,0.9,0.7c0.4,0.1,0.7,0.2,1.1,0.2
		c0.2,0,0.5,0,0.7-0.1c0.2,0,0.4-0.1,0.5-0.2c0.1-0.1,0.2-0.1,0.4-0.2l0.2-0.2l0.5,0.9l-0.2,0.2c-0.1,0.1-0.2,0.2-0.5,0.4
		c-0.2,0.1-0.5,0.2-0.7,0.2c-0.2,0.1-0.6,0.1-1,0.1c-0.6,0-1.1-0.1-1.6-0.2c-0.5-0.2-0.9-0.5-1.2-0.9c-0.4-0.4-0.6-1-0.7-1.6
		C-75.7,382.1-75.8,381.2-75.8,380.3 M-68.6,381.8c0-0.6,0.1-1.2,0.2-1.7s0.4-0.9,0.6-1.1c0.2-0.2,0.6-0.5,0.9-0.6
		c0.4-0.1,0.7-0.2,1.1-0.2s0.7,0.1,1.1,0.2c0.4,0.1,0.6,0.4,0.9,0.6c0.2,0.2,0.5,0.7,0.6,1.1c0.1,0.5,0.2,1,0.2,1.7
		c0,0.6-0.1,1.2-0.2,1.7s-0.4,0.9-0.6,1.1c-0.2,0.2-0.6,0.5-0.9,0.6c-0.4,0.1-0.7,0.2-1.1,0.2s-0.7-0.1-1.1-0.2
		c-0.4-0.1-0.6-0.4-0.9-0.6s-0.5-0.7-0.6-1.1C-68.5,383-68.6,382.5-68.6,381.8 M-64.3,381.8c0-1-0.1-1.6-0.4-2.1
		c-0.2-0.4-0.6-0.6-1.1-0.6c-0.5,0-0.9,0.2-1.1,0.6c-0.2,0.4-0.4,1.1-0.4,2.1s0.1,1.6,0.4,2c0.2,0.4,0.6,0.6,1.1,0.6
		c0.5,0,0.9-0.2,1.1-0.6S-64.3,382.8-64.3,381.8 M-61.9,381.8c0-0.6,0.1-1.2,0.2-1.7s0.4-0.9,0.6-1.1c0.2-0.2,0.6-0.5,0.9-0.6
		c0.4-0.1,0.7-0.2,1.1-0.2s0.7,0.1,1.1,0.2c0.4,0.1,0.6,0.4,0.9,0.6c0.2,0.2,0.5,0.7,0.6,1.1c0.1,0.5,0.2,1,0.2,1.7
		c0,0.6-0.1,1.2-0.2,1.7c-0.1,0.5-0.4,0.9-0.6,1.1c-0.2,0.2-0.6,0.5-0.9,0.6c-0.4,0.1-0.7,0.2-1.1,0.2s-0.7-0.1-1.1-0.2
		c-0.4-0.1-0.6-0.4-0.9-0.6c-0.2-0.2-0.5-0.7-0.6-1.1C-61.9,383-61.9,382.5-61.9,381.8 M-57.6,381.8c0-1-0.1-1.6-0.4-2.1
		c-0.2-0.4-0.6-0.6-1.1-0.6c-0.5,0-0.9,0.2-1.1,0.6c-0.2,0.4-0.4,1.1-0.4,2.1s0.1,1.6,0.4,2c0.2,0.4,0.6,0.6,1.1,0.6
		c0.5,0,0.9-0.2,1.1-0.6C-57.7,383.4-57.6,382.8-57.6,381.8 M-49.6,381.7c0,0.7-0.1,1.3-0.2,1.8c-0.1,0.5-0.4,0.9-0.6,1.2
		c-0.2,0.2-0.6,0.5-1,0.6c-0.4,0.1-0.7,0.2-1.1,0.2h-0.6c-0.1,0-0.4-0.1-0.4-0.1v2.9h-1.2v-9.9h1.1v0.7c0-0.1,0.1-0.1,0.2-0.2
		c0.1-0.1,0.2-0.2,0.4-0.2c0.1-0.1,0.4-0.1,0.5-0.2c0.2-0.1,0.5-0.1,0.7-0.1c0.4,0,0.7,0.1,1,0.2c0.2,0.1,0.5,0.4,0.7,0.6
		c0.2,0.2,0.4,0.6,0.5,1.1V381.7 M-52.3,379.1c-0.4,0-0.6,0.1-0.9,0.2c-0.2,0.1-0.4,0.2-0.5,0.4v4.3c0.1,0.1,0.2,0.1,0.4,0.2
		c0.1,0.1,0.4,0.1,0.6,0.1s0.5,0,0.7-0.1c0.2-0.1,0.4-0.2,0.6-0.5c0.1-0.2,0.2-0.5,0.4-0.9c0.1-0.4,0.1-0.7,0.1-1.2s0-0.9-0.1-1.2
		c-0.1-0.4-0.1-0.6-0.2-0.7c-0.1-0.2-0.2-0.4-0.5-0.5C-51.9,379.2-52.1,379.1-52.3,379.1 M-43.6,380.7v1.3h-3.6
		c0,0.9,0.2,1.5,0.5,1.8c0.4,0.4,0.7,0.6,1.3,0.6c0.2,0,0.4,0,0.6-0.1c0.1,0,0.4-0.1,0.5-0.1c0.1-0.1,0.2-0.1,0.4-0.2l0.1-0.1
		l0.5,0.9l-0.2,0.2c-0.1,0.1-0.2,0.2-0.4,0.2c-0.1,0.1-0.4,0.1-0.6,0.2c-0.2,0.1-0.5,0.1-0.9,0.1c-0.5,0-0.9-0.1-1.2-0.2
		c-0.4-0.1-0.6-0.4-0.9-0.7c-0.2-0.4-0.5-0.7-0.6-1.2s-0.2-1-0.2-1.7c0-0.6,0.1-1.1,0.2-1.6c0.1-0.5,0.4-0.9,0.6-1.1
		c0.2-0.2,0.5-0.5,0.9-0.6c0.4-0.1,0.6-0.2,1-0.2c0.6,0,1.2,0.2,1.6,0.6C-43.9,379.2-43.6,379.8-43.6,380.7 M-45.8,379.1
		c-0.4,0-0.7,0.1-1,0.5c-0.2,0.4-0.4,0.9-0.5,1.5h2.6v-0.2v-0.2c0-0.5-0.1-0.9-0.2-1.1C-45.2,379.2-45.4,379.1-45.8,379.1
		 M-39,379.4c0,0-0.1,0-0.2-0.1h-0.4c-0.4,0-0.6,0.1-0.9,0.2c-0.2,0.2-0.4,0.4-0.5,0.6v5.1h-1.2v-7h1.1v1c0-0.1,0.1-0.2,0.2-0.4
		c0.1-0.1,0.1-0.2,0.2-0.4c0.1-0.1,0.2-0.1,0.4-0.2c0.1,0,0.4-0.1,0.6-0.1h0.4c0.1,0,0.1,0,0.2,0.1V379.4z M-38.3,383.5
		c0-0.4,0.1-0.7,0.2-1c0.1-0.2,0.4-0.5,0.6-0.6s0.6-0.2,1-0.4c0.4-0.1,0.7-0.1,1.1-0.1h0.4v-0.6c0-0.6-0.1-1-0.4-1.2
		c-0.2-0.2-0.5-0.4-0.9-0.4c-0.4,0-0.6,0.1-0.9,0.2c-0.2,0.1-0.4,0.2-0.6,0.4l-0.5-0.7l0.2-0.2c0.1-0.1,0.2-0.2,0.5-0.2
		c0.1-0.1,0.4-0.1,0.6-0.2c0.2,0,0.5-0.1,0.7-0.1c0.7,0,1.2,0.2,1.6,0.6c0.4,0.4,0.6,1,0.6,2v4.7H-35v-0.7c0,0.1-0.1,0.2-0.1,0.2
		c-0.1,0.1-0.1,0.2-0.2,0.4c-0.1,0.1-0.2,0.1-0.4,0.2c-0.1,0.1-0.4,0.1-0.6,0.1c-0.2,0-0.5,0-0.7-0.1c-0.2-0.1-0.5-0.2-0.6-0.4
		s-0.2-0.4-0.4-0.6C-38.2,384.1-38.3,383.9-38.3,383.5 M-36.1,384.5c0.1,0,0.4,0,0.5-0.1c0.1,0,0.2-0.1,0.4-0.1l0.2-0.2
		c0.1-0.1,0.1-0.1,0.1-0.2v-1.5h-0.4c-0.6,0-1,0.1-1.2,0.2c-0.2,0.1-0.5,0.5-0.5,0.9c0,0.4,0.1,0.6,0.2,0.9
		C-36.7,384.4-36.5,384.5-36.1,384.5 M-29,379.4h-1.6v3.9c0,0.5,0.1,0.9,0.2,1c0.1,0.1,0.4,0.2,0.6,0.2c0.1,0,0.4,0,0.5-0.1
		c0.1,0,0.2-0.1,0.2-0.1l0.1,1c0,0-0.1,0.1-0.4,0.1c-0.2,0.1-0.5,0.1-0.7,0.1c-0.6,0-1.1-0.1-1.3-0.5c-0.2-0.4-0.5-0.9-0.5-1.7v-4
		h-0.9v-0.7l0.9-0.1l0.1-2h1.1v2h1.7L-29,379.4L-29,379.4z M-26.6,385.4h-1.2v-7h1.2V385.4z M-27.2,376.7c-0.2,0-0.5-0.1-0.6-0.2
		c-0.1-0.1-0.2-0.4-0.2-0.6s0.1-0.5,0.2-0.6c0.1-0.1,0.4-0.2,0.6-0.2c0.2,0,0.4,0.1,0.6,0.2c0.1,0.1,0.2,0.4,0.2,0.6
		s-0.1,0.5-0.2,0.6C-26.7,376.5-26.9,376.7-27.2,376.7 M-25.1,381.8c0-0.6,0.1-1.2,0.2-1.7c0.1-0.5,0.4-0.9,0.6-1.1
		c0.2-0.2,0.6-0.5,0.9-0.6c0.4-0.1,0.7-0.2,1.1-0.2c0.4,0,0.7,0.1,1.1,0.2c0.4,0.1,0.6,0.4,0.9,0.6c0.2,0.2,0.5,0.7,0.6,1.1
		c0.1,0.5,0.2,1,0.2,1.7c0,0.6-0.1,1.2-0.2,1.7c-0.1,0.5-0.4,0.9-0.6,1.1c-0.2,0.2-0.6,0.5-0.9,0.6c-0.4,0.1-0.7,0.2-1.1,0.2
		c-0.4,0-0.7-0.1-1.1-0.2c-0.4-0.1-0.6-0.4-0.9-0.6c-0.2-0.2-0.5-0.7-0.6-1.1C-25,383-25.1,382.5-25.1,381.8 M-20.8,381.8
		c0-1-0.1-1.6-0.4-2.1c-0.2-0.4-0.6-0.6-1.1-0.6s-0.9,0.2-1.1,0.6c-0.2,0.4-0.4,1.1-0.4,2.1c0,1,0.1,1.6,0.4,2
		c0.2,0.4,0.6,0.6,1.1,0.6s0.9-0.2,1.1-0.6C-20.9,383.4-20.8,382.8-20.8,381.8 M-14.2,385.4v-4.5c0-0.6-0.1-1-0.2-1.2
		c-0.2-0.2-0.5-0.4-0.9-0.4s-0.6,0.1-0.9,0.2c-0.2,0.1-0.4,0.4-0.6,0.5v5.4H-18v-7h1.1v0.7l0.2-0.2l0.4-0.4c0.1-0.1,0.4-0.2,0.6-0.2
		c0.2-0.1,0.5-0.1,0.7-0.1c0.4,0,0.6,0,0.9,0.1c0.2,0.1,0.5,0.2,0.6,0.5c0.1,0.2,0.4,0.5,0.4,0.7c0.1,0.4,0.1,0.7,0.1,1.2v4.5h-1.2
		L-14.2,385.4z M-148.1,398.2c0-0.4,0.1-0.7,0.2-1c0.1-0.2,0.4-0.5,0.6-0.6c0.2-0.1,0.6-0.2,1-0.4c0.4-0.1,0.7-0.1,1.1-0.1h0.4v-0.6
		c0-0.6-0.1-1-0.4-1.2s-0.5-0.4-0.9-0.4s-0.6,0.1-0.9,0.2c-0.2,0.1-0.4,0.2-0.6,0.4l-0.5-0.7l0.2-0.2c0.1-0.1,0.2-0.2,0.5-0.2
		c0.1-0.1,0.4-0.1,0.6-0.2c0.2,0,0.5-0.1,0.7-0.1c0.7,0,1.2,0.2,1.6,0.6c0.4,0.4,0.6,1,0.6,2v4.7h-1.1v-0.7c0,0.1-0.1,0.2-0.1,0.2
		c-0.1,0.1-0.1,0.2-0.2,0.4c-0.1,0.1-0.2,0.1-0.4,0.2c-0.1,0.1-0.4,0.1-0.6,0.1s-0.5,0-0.7-0.1c-0.2-0.1-0.4-0.2-0.6-0.4
		c-0.1-0.1-0.2-0.4-0.4-0.6C-148.1,398.8-148.1,398.6-148.1,398.2 M-146,399.2c0.1,0,0.4,0,0.5-0.1c0.1,0,0.2-0.1,0.4-0.1l0.2-0.2
		c0.1-0.1,0.1-0.1,0.1-0.2V397h-0.4c-0.6,0-1,0.1-1.2,0.2c-0.2,0.1-0.5,0.5-0.5,0.9c0,0.4,0.1,0.6,0.2,0.9
		C-146.5,399.1-146.3,399.2-146,399.2 M-138.1,400.1v-4.5c0-0.6-0.1-1-0.2-1.2c-0.2-0.2-0.5-0.4-0.9-0.4s-0.6,0.1-0.9,0.2
		c-0.2,0.1-0.4,0.4-0.6,0.5v5.4h-1.2v-7h1.1v0.7l0.2-0.2l0.4-0.4c0.1-0.1,0.4-0.2,0.6-0.2c0.2-0.1,0.5-0.1,0.7-0.1
		c0.4,0,0.6,0,0.9,0.1c0.2,0.1,0.5,0.2,0.6,0.5c0.1,0.2,0.4,0.5,0.4,0.7c0.1,0.4,0.1,0.7,0.1,1.2v4.5h-1.2L-138.1,400.1
		L-138.1,400.1z M-135.5,396.6c0-0.7,0.1-1.3,0.2-1.8c0.1-0.5,0.4-0.9,0.7-1.1c0.4-0.2,0.6-0.5,1-0.6c0.4-0.1,0.7-0.1,1.1-0.1h0.6
		c0.1,0,0.2,0.1,0.4,0.1v-3.3l1.2-0.1v10.4h-1.1v-0.7c0,0-0.1,0.1-0.1,0.2c-0.1,0.1-0.2,0.2-0.4,0.2c-0.1,0.1-0.4,0.2-0.5,0.2
		c-0.2,0.1-0.5,0.1-0.7,0.1c-0.4,0-0.6-0.1-1-0.2c-0.2-0.1-0.6-0.4-0.7-0.6c-0.2-0.2-0.4-0.6-0.5-1.1
		C-135.4,397.9-135.5,397.2-135.5,396.6 M-132.7,399.2c0.1,0,0.4,0,0.5-0.1c0.1,0,0.2-0.1,0.4-0.1c0.1-0.1,0.2-0.1,0.2-0.2
		c0.1-0.1,0.1-0.1,0.1-0.2v-4.3c-0.1-0.1-0.2-0.1-0.4-0.1c-0.1,0-0.4-0.1-0.5-0.1c-0.2,0-0.5,0-0.7,0.1c-0.2,0.1-0.5,0.2-0.6,0.5
		c-0.1,0.2-0.4,0.5-0.4,0.9c-0.1,0.4-0.1,0.7-0.1,1.2s0,0.9,0.1,1.2s0.2,0.6,0.4,0.7c0.1,0.2,0.4,0.4,0.5,0.5
		C-133.1,399.1-132.9,399.2-132.7,399.2 M-125.1,400.1v-10h1.8c0.9,0,1.5,0.1,2.1,0.2c0.6,0.1,1.1,0.5,1.5,0.9
		c0.4,0.4,0.7,0.9,0.9,1.5c0.2,0.6,0.2,1.3,0.2,2.2c0,1-0.1,1.7-0.4,2.3c-0.2,0.6-0.6,1.2-1,1.6c-0.5,0.5-1,0.7-1.6,1
		c-0.6,0.2-1.3,0.4-2.1,0.4L-125.1,400.1L-125.1,400.1z M-123.7,391v8h0.5c0.6,0,1.1-0.1,1.6-0.2c0.5-0.1,0.9-0.4,1.1-0.7
		c0.4-0.4,0.5-0.7,0.7-1.3c0.1-0.5,0.2-1.2,0.2-2s-0.1-1.3-0.2-1.8c-0.1-0.5-0.4-0.9-0.7-1.2c-0.2-0.2-0.6-0.5-1.1-0.6
		c-0.5-0.1-1-0.2-1.5-0.2h-0.6L-123.7,391z M-112.2,395.4v1.3h-3.6c0,0.9,0.2,1.5,0.5,1.8c0.4,0.4,0.7,0.6,1.3,0.6
		c0.2,0,0.4,0,0.6-0.1c0.1,0,0.4-0.1,0.5-0.1c0.1-0.1,0.2-0.1,0.4-0.2l0.1-0.1l0.5,0.9l-0.2,0.2c-0.1,0.1-0.2,0.2-0.4,0.2
		c-0.1,0.1-0.4,0.1-0.6,0.2c-0.2,0.1-0.5,0.1-0.9,0.1c-0.5,0-0.9-0.1-1.2-0.2c-0.4-0.1-0.6-0.4-0.9-0.7c-0.2-0.4-0.5-0.7-0.6-1.2
		c-0.1-0.5-0.2-1-0.2-1.7c0-0.6,0.1-1.1,0.2-1.6c0.1-0.5,0.4-0.9,0.6-1.1c0.2-0.2,0.5-0.5,0.9-0.6c0.4-0.1,0.6-0.2,1-0.2
		c0.6,0,1.2,0.2,1.6,0.6C-112.5,393.9-112.2,394.5-112.2,395.4 M-114.4,393.8c-0.4,0-0.7,0.1-1,0.5c-0.2,0.4-0.4,0.9-0.5,1.5h2.6
		v-0.2v-0.2c0-0.5-0.1-0.9-0.2-1.1C-113.8,393.9-114.1,393.8-114.4,393.8 M-106.1,393.1l-2.2,7h-1.1l-2.2-7h1.2l1,3.9
		c0.1,0.4,0.2,0.7,0.2,1.1c0.1,0.4,0.1,0.6,0.1,1c0-0.2,0.1-0.6,0.1-1c0.1-0.4,0.1-0.7,0.2-1.1l1.1-3.9H-106.1L-106.1,393.1z
		 M-100.6,395.4v1.3h-3.6c0,0.9,0.2,1.5,0.5,1.8c0.4,0.4,0.7,0.6,1.3,0.6c0.2,0,0.4,0,0.6-0.1c0.1,0,0.4-0.1,0.5-0.1
		c0.1-0.1,0.2-0.1,0.4-0.2l0.1-0.1l0.5,0.9l-0.2,0.2c-0.1,0.1-0.2,0.2-0.4,0.2c-0.1,0.1-0.4,0.1-0.6,0.2c-0.2,0.1-0.5,0.1-0.9,0.1
		c-0.5,0-0.9-0.1-1.2-0.2c-0.4-0.1-0.6-0.4-0.9-0.7c-0.2-0.4-0.5-0.7-0.6-1.2c-0.1-0.5-0.2-1-0.2-1.7c0-0.6,0.1-1.1,0.2-1.6
		s0.4-0.9,0.6-1.1c0.2-0.2,0.5-0.5,0.9-0.6c0.4-0.1,0.6-0.2,1-0.2c0.6,0,1.2,0.2,1.6,0.6C-100.8,393.9-100.6,394.5-100.6,395.4
		 M-102.8,393.8c-0.4,0-0.7,0.1-1,0.5c-0.2,0.4-0.4,0.9-0.5,1.5h2.6v-0.2v-0.2c0-0.5-0.1-0.9-0.2-1.1
		C-102.2,393.9-102.4,393.8-102.8,393.8 M-97.9,398.3c0,0.2,0,0.5,0.1,0.6c0.1,0.1,0.2,0.1,0.5,0.1h0.4l0.1,0.9c0,0-0.1,0.1-0.4,0.1
		c-0.1,0-0.4,0.1-0.6,0.1c-0.4,0-0.7-0.1-1-0.4c-0.2-0.2-0.4-0.7-0.4-1.3v-8.8l1.2-0.1L-97.9,398.3L-97.9,398.3z M-96.1,396.5
		c0-0.6,0.1-1.2,0.2-1.7c0.1-0.5,0.4-0.9,0.6-1.1c0.2-0.2,0.6-0.5,0.9-0.6c0.4-0.1,0.7-0.2,1.1-0.2s0.7,0.1,1.1,0.2
		c0.4,0.1,0.6,0.4,0.9,0.6s0.5,0.7,0.6,1.1c0.1,0.5,0.2,1,0.2,1.7c0,0.6-0.1,1.2-0.2,1.7s-0.4,0.9-0.6,1.1c-0.2,0.2-0.6,0.5-0.9,0.6
		c-0.4,0.1-0.7,0.2-1.1,0.2s-0.7-0.1-1.1-0.2c-0.4-0.1-0.6-0.4-0.9-0.6c-0.2-0.2-0.5-0.7-0.6-1.1C-95.9,397.7-96.1,397.2-96.1,396.5
		 M-91.8,396.5c0-1-0.1-1.6-0.4-2.1c-0.2-0.4-0.6-0.6-1.1-0.6c-0.5,0-0.9,0.2-1.1,0.6c-0.2,0.4-0.4,1.1-0.4,2.1c0,1,0.1,1.6,0.4,2
		c0.2,0.4,0.6,0.6,1.1,0.6c0.5,0,0.9-0.2,1.1-0.6C-91.9,398.1-91.8,397.5-91.8,396.5 M-83.8,396.4c0,0.7-0.1,1.3-0.2,1.8
		s-0.4,0.9-0.6,1.2c-0.2,0.2-0.6,0.5-1,0.6c-0.4,0.1-0.7,0.2-1.1,0.2h-0.6c-0.1,0-0.4-0.1-0.4-0.1v2.9h-1.2v-9.9h1.1v0.7
		c0-0.1,0.1-0.1,0.2-0.2c0.1-0.1,0.2-0.2,0.4-0.2c0.1-0.1,0.4-0.1,0.5-0.2c0.2-0.1,0.5-0.1,0.7-0.1c0.4,0,0.7,0.1,1,0.2
		c0.2,0.1,0.5,0.4,0.7,0.6c0.2,0.2,0.4,0.6,0.5,1.1V396.4 M-86.5,393.8c-0.4,0-0.6,0.1-0.9,0.2c-0.2,0.1-0.4,0.2-0.5,0.4v4.3
		c0.1,0.1,0.2,0.1,0.4,0.2c0.1,0.1,0.4,0.1,0.6,0.1c0.2,0,0.5,0,0.7-0.1c0.2-0.1,0.4-0.2,0.6-0.5c0.2-0.2,0.2-0.5,0.4-0.9
		c0.1-0.4,0.1-0.7,0.1-1.2c0-0.5,0-0.9-0.1-1.2c-0.1-0.4-0.1-0.6-0.4-0.7c-0.1-0.2-0.2-0.4-0.5-0.5C-86,393.9-86.3,393.8-86.5,393.8
		 M-78.5,400.1v-4.5c0-0.6-0.1-1-0.2-1.2s-0.5-0.4-0.9-0.4c-0.2,0-0.4,0-0.5,0.1c-0.1,0-0.2,0.1-0.4,0.1c-0.1,0.1-0.2,0.1-0.4,0.2
		l-0.2,0.2v5.4h-1.2v-7h1.1v0.7c0-0.1,0.1-0.1,0.2-0.2l0.4-0.4c0.1-0.1,0.4-0.2,0.5-0.2c0.2-0.1,0.4-0.1,0.6-0.1
		c0.9,0,1.3,0.4,1.7,1c0.1-0.1,0.1-0.2,0.2-0.4l0.4-0.4c0.1-0.1,0.4-0.1,0.5-0.2c0.2,0,0.4-0.1,0.6-0.1c1.5,0,2.1,0.9,2.1,2.5v4.7
		h-1.2v-4.5c0-0.6-0.1-1-0.4-1.2c-0.2-0.2-0.5-0.4-0.9-0.4c-0.4,0-0.6,0.1-0.9,0.2c-0.2,0.1-0.4,0.4-0.5,0.5v5.4h-0.7L-78.5,400.1z
		 M-67.5,395.4v1.3h-3.6c0,0.9,0.2,1.5,0.5,1.8c0.4,0.4,0.7,0.6,1.3,0.6c0.2,0,0.4,0,0.6-0.1c0.1,0,0.4-0.1,0.5-0.1
		c0.1-0.1,0.2-0.1,0.4-0.2l0.1-0.1l0.5,0.9l-0.2,0.2c-0.1,0.1-0.2,0.2-0.4,0.2c-0.1,0.1-0.4,0.1-0.6,0.2c-0.2,0.1-0.5,0.1-0.9,0.1
		c-0.5,0-0.9-0.1-1.2-0.2c-0.4-0.1-0.6-0.4-0.9-0.7c-0.2-0.4-0.5-0.7-0.6-1.2c-0.1-0.5-0.2-1-0.2-1.7c0-0.6,0.1-1.1,0.2-1.6
		s0.4-0.9,0.6-1.1c0.2-0.2,0.5-0.5,0.9-0.6c0.4-0.1,0.6-0.2,1-0.2c0.6,0,1.2,0.2,1.6,0.6C-67.6,393.9-67.5,394.5-67.5,395.4
		 M-69.7,393.8c-0.4,0-0.7,0.1-1,0.5c-0.2,0.4-0.4,0.9-0.5,1.5h2.6v-0.2v-0.2c0-0.5-0.1-0.9-0.2-1.1
		C-69.1,393.9-69.3,393.8-69.7,393.8 M-62.1,400.1v-4.5c0-0.6-0.1-1-0.2-1.2c-0.2-0.2-0.5-0.4-0.9-0.4s-0.6,0.1-0.9,0.2
		c-0.2,0.1-0.4,0.4-0.6,0.5v5.4h-1.2v-7h1.1v0.7l0.2-0.2l0.4-0.4c0.1-0.1,0.4-0.2,0.6-0.2c0.2-0.1,0.5-0.1,0.7-0.1
		c0.4,0,0.6,0,0.9,0.1c0.2,0.1,0.5,0.2,0.6,0.5c0.1,0.2,0.4,0.5,0.4,0.7c0.1,0.4,0.1,0.7,0.1,1.2v4.5h-1.2L-62.1,400.1z
		 M-56.1,394.1h-1.5v3.9c0,0.5,0.1,0.9,0.2,1s0.4,0.2,0.6,0.2c0.1,0,0.4,0,0.5-0.1c0.1,0,0.2-0.1,0.2-0.1l0.1,1c0,0-0.1,0.1-0.4,0.2
		c-0.2,0.1-0.5,0.1-0.7,0.1c-0.6,0-1.1-0.1-1.3-0.5c-0.2-0.4-0.5-0.9-0.5-1.7v-4h-0.9v-0.7l0.9-0.1l0.1-2h1.1v2h1.7L-56.1,394.1
		L-56.1,394.1z"/>
	<path class="st0" d="M-158.4,409.9h1.8v24.5h-4.3v-24.5H-158.4z"/>
	<path class="st1" d="M-158.4,385.2h1.8v24.6h-4.3v-24.6H-158.4z"/>
	<path d="M-172,369.4c1.2,2,2.2,2,3.7,2c-1.2-1-2.1-2.2-2.5-2.8l-2.3-3.7c-0.2-1.1-0.9-2.2-1.7-2.9l0.7-0.4c-1.5,0-2.9-0.7-3.8-0.7
		c-0.5,0-0.9,0.4-0.9,0.7c0,0.5,0.5,1,1.3,1c0.2,0,0.5,0,0.7-0.1c0.5,0.6,0.9,1.2,0.9,2.1c0,1.6-2,2.8-3.8,2.8h-0.4
		c-0.1-0.4-0.7-1.1-0.7-1.8c0-1.2,0.9-2.3,0.9-3.6c0-0.7-0.4-1.2-0.5-1.5c0.2-0.2,0.5-0.5,0.6-0.7c-0.1,0-0.2,0.1-0.5,0.1
		c-1,0-1.7-0.2-2.5-0.2c-0.4,0-0.5,0.1-0.5,0.2v0.1c-0.1,0-0.2-0.1-0.5-0.1c-0.2,0-0.5-0.1-0.7-0.1c-0.9,0-1.2,0.4-1.2,0.7
		c0,0.2,0.2,0.7,0.5,1.1c0.4-0.1,0.7-0.2,1-0.2c0.5,0,0.9,0.5,1.1,1h-0.7c-0.9,0-1.5-0.4-1.6-0.4c0,0.1,0.2,0.5,0.7,0.6
		c0.6,0.2,1.6,0.4,1.7,0.4c0,0-0.1,0.4-0.4,0.4h-0.1c-0.6-0.1-0.9-0.2-1.7-0.5c0,0.4,0.9,1.1,1.6,1.3c-0.6,0.9-1.5,1.7-1.8,2.9h-0.4
		c-2,0-3.8-1.2-3.8-2.8c0-0.9,0.4-1.5,0.9-2.1c0.2,0,0.5,0.1,0.7,0.1c0.9,0,1.3-0.5,1.3-1c0-0.4-0.4-0.7-0.9-0.7
		c-0.9,0-2.3,0.7-3.8,0.7c0.1,0.1,0.4,0.2,0.7,0.4c-0.9,0.7-1.5,1.8-1.7,2.9l-2.3,3.7c-0.4,0.6-1.2,1.8-2.5,2.8c1.5,0,2.5,0,3.7-2
		l1.2-1.8l0.4,0.7l-2.3,3.8c-0.4,0.6-1.2,1.8-2.5,2.8c1.5,0,2.5,0,3.7-2l2-3.2l0.5,0.5l-2.8,4.5c-0.4,0.6-1.2,1.8-2.5,2.8
		c1.5,0,2.5,0,3.7-2l2.8-4.4c0.1,0.1,0.4,0.2,0.6,0.4l-3.4,5.4c-0.4,0.6-1.2,1.8-2.5,2.8c1.5,0,2.5,0,3.7-2l3.4-5.5
		c0.2,0.1,0.4,0.1,0.6,0.2l-3.9,6.2c-0.4,0.6-1.2,1.8-2.5,2.8c1.5,0,2.5,0,3.7-2l4.2-6.7h0.1c0.1,0.4,0.2,0.7,0.2,1
		c0,2.1-1.3,3.9-3.1,5.4c0.1,0,0.2,0.1,0.5,0.1h0.7c-0.4,0.9-1.2,2-1.6,2.6c-0.5-0.1-1.3-0.1-1.8-0.1c-0.5,0-0.6,0.4-0.6,0.6
		c0,0.5,0.2,0.9,0.5,1.1c0.1-0.2,0.2-0.6,1.3-0.6h0.1c-0.2,0.4-1.2,1.1-1.2,1.7c0,0.4,0.5,1,1,1v-0.4c0-0.5,0.4-1.1,0.7-1.5v0.2
		c0,1.1,0.1,1.7,0.9,1.7c0.4,0,0.6-0.2,0.7-0.2c-0.4-0.7-0.4-1.1-0.4-1.7V383v-0.5h0.6c0,0,1-0.1,1.2,0.5c0.2-0.2,0.7-0.6,0.7-1
		c0-0.2-0.1-0.6-0.6-0.6c-0.2,0-0.9,0.1-1.3,0.1c0.1-0.4,0.7-1.2,1.3-2c0.1,0.2,0.2,0.5,0.5,0.7c0-0.5,0.2-1.8,1-2.6
		c0.1,0.5,0.1,1.1,0.1,2.2c0,2.8-0.7,4.9-2.1,5.3c0.2,0.4,0.6,0.6,1,0.6c0.5,0,0.9-0.6,1.1-1.2c0.1,0.4,0.6,1.5,1,1.5
		c0.4,0,0.9-1,1-1.5c0.2,0.6,0.6,1.2,1.1,1.2c0.4,0,0.9-0.2,1-0.6c-1.5-0.4-2.1-2.5-2.1-5.3c0-1.2,0.1-1.7,0.2-2.2
		c0.6,0.9,1,2.2,1,2.6c0.2-0.2,0.4-0.5,0.5-0.7c0.5,0.6,1.2,1.6,1.3,2c-0.5,0-1.1-0.1-1.3-0.1c-0.5,0-0.6,0.2-0.6,0.6
		c0,0.4,0.4,0.7,0.7,1c0.2-0.5,1.2-0.5,1.2-0.5h0.6v1.1c0,0.6,0,1-0.5,1.5c0.1,0,0.4,0.2,0.7,0.2c0.7,0,0.9-0.5,0.9-1.7v-0.2
		c0.4,0.4,0.7,1,0.7,1.5v0.4c0.6,0,1-0.6,1-1c0-0.6-0.9-1.3-1.2-1.7h0.1c1,0,1.2,0.4,1.3,0.6c0.2-0.2,0.5-0.6,0.5-1.1
		c0-0.2-0.1-0.6-0.6-0.6c-0.5,0-1.3,0.1-1.8,0.1c-0.4-0.6-1.2-1.7-1.6-2.6h0.7c0.1,0,0.4,0,0.5-0.1c-1.7-1.5-3.1-3.3-3.1-5.4
		c0-0.4,0.1-0.7,0.2-1h0.1l4.2,6.7c1.2,2,2.2,2,3.7,2c-1.2-1-2.1-2.2-2.5-2.8l-3.9-6.2c0.2-0.1,0.4-0.1,0.6-0.2l3.4,5.5
		c1.2,2,2.2,2,3.7,2c-1.2-1-2.1-2.1-2.5-2.8l-3.7-5.3c0.2-0.1,0.4-0.2,0.6-0.4l2.8,4.4c1.2,2,2.2,2,3.7,2c-1.2-1-2.1-2.1-2.5-2.8
		l-2.8-4.4l0.5-0.5l2,3.2c1.2,2,2.2,2,3.7,2c-1.2-1-2.1-2.1-2.5-2.8l-2.3-3.8l0.4-0.7C-173.3,367.3-172,369.4-172,369.4z
		 M-190.8,365.1c0-1.3,1-2.5,1.3-2.8h0.2c-0.4,0.5-1.1,1.2-1.1,2.3c0,2.1,2.2,3.8,4.7,3.8v1.3C-188.3,369.8-190.8,367.6-190.8,365.1
		 M-187,381.8h1.8c0.2,0,0.4,0,0.4,0.2c0,0.1-0.2,0.5-0.4,0.6c-0.2-0.2-0.7-0.4-1.2-0.4c-0.2,0-0.6,0-0.9,0.1v1.3
		c0,0.6,0.1,1.1,0.4,1.3h-0.2c-0.4,0-0.5-0.1-0.5-1.3v-0.9c-0.6,0.5-1.2,1.3-1.2,2c-0.5-0.1-0.7-0.5-0.7-0.6c0-0.4,0.5-0.9,1.1-1.5
		l0.4-0.4h-0.1c-0.1-0.1-0.4-0.1-0.5-0.1c-0.6,0-1.1,0.1-1.3,0.4c-0.1-0.1-0.1-0.5-0.1-0.6c0-0.1,0-0.2,0.1-0.2h0.2
		c0.7,0,1.6,0.1,2,0.2c0-0.1,1.5-2,1.8-2.9h0.2c0.2,0,0.4,0.2,0.5,0.5C-186.2,380.5-186.9,381.3-187,381.8 M-179.5,378.9h0.2
		c0.4,1,1.7,2.8,1.8,2.9c0.4,0,1.2-0.2,2-0.2h0.2c0,0,0.1,0.1,0.1,0.2c0,0.1-0.1,0.5-0.1,0.6c-0.2-0.2-0.7-0.4-1.3-0.4
		c-0.2,0-0.5,0-0.6,0.1l0.4,0.4c0.6,0.6,1.1,1.1,1.1,1.5c0,0.2-0.2,0.5-0.4,0.6c0-0.6-0.6-1.5-1.3-2v0.9c0,1.2-0.1,1.3-0.5,1.3h-0.2
		c0.2-0.2,0.4-0.6,0.4-1.3v-0.6v-0.7h-0.1c-0.2,0.1-0.6,0.1-0.9,0.1c-0.6,0-1,0-1.2,0.4c-0.2-0.1-0.4-0.4-0.4-0.6
		c0-0.2,0.1-0.2,0.4-0.2h0.4c0.2,0,0.6,0.1,1.5,0.1c-0.2-0.6-0.7-1.3-1.6-2.5C-179.7,379.1-179.7,378.9-179.5,378.9 M-182.7,362.6
		c-0.1-0.4-0.2-0.7-0.5-1c-0.2-0.2-0.6-0.6-1.1-0.6c-0.2,0-0.6,0.1-0.9,0.2c-0.1-0.1-0.2-0.5-0.2-0.7c0-0.1,0.2-0.4,0.9-0.4
		c1.2,0,2,0.6,2,1.5C-182.4,362.1-182.6,362.3-182.7,362.6 M-182.1,361.3c0-0.2-0.1-0.5-0.2-0.7c0-0.2,0.1-0.5,0.5-0.2
		c-0.2,0.2,0,0.6,0,0.6s0.5-0.2,0.4-0.5C-181,360.6-181.5,361.5-182.1,361.3 M-179.6,369.8v-0.9v-0.5c2.5,0,4.5-1.8,4.5-3.8
		c0-1-0.6-1.8-1.1-2.3h0.2c0.4,0.4,1.3,1.5,1.3,2.8C-174.5,367.5-176.9,369.8-179.6,369.8 M-156.6,360.9v24.5h-4.3v-24.5H-156.6z"/>
</g>
</svg>
