<?xml version="1.0" encoding="utf-8"?>
<!-- Generator: Adobe Illustrator 19.0.0, SVG Export Plug-In . SVG Version: 6.00 Build 0)  -->
<svg version="1.1" id="Layer_1" xmlns="http://www.w3.org/2000/svg" xmlns:xlink="http://www.w3.org/1999/xlink" x="0px" y="0px"
	 width="200px" height="100px" viewBox="-5 347 200 100" style="enable-background:new -5 347 200 100;" xml:space="preserve">
<style type="text/css">
	.st0{fill:#00AEA0;}
	.st1{fill:#FFFFFF;}
	.st2{fill:none;stroke:#003350;stroke-width:0.678;}
	.st3{fill:#003350;}
</style>
<path class="st0" d="M189.9,405.3c0,2.4-1.1,3.7-3,3.7c-1.8,0-3.1-1.1-3.1-3.7v-13.9c0-1.7,1.3-3.6,3.1-3.6c1.7,0,3,1.9,3,3.6V405.3
	z M193.8,412.3v-27.6c0-0.6-0.2-0.7-2-0.7c-1.4,0-1.9-0.1-1.9,0.4c0,1.1-0.2,1.1-0.7,0.6c-0.9-0.9-1.8-0.9-2.4-0.9
	c-3.9,0-7,2.8-7,7.3v14.1c0,4.9,3,7.5,7,7.5c2.3,0,2.5-1.6,2.8-1.6c0.5,0,0.4,0.6,0.4,1.1s0.4,0.5,1.8,0.5
	C193.7,413,193.8,413,193.8,412.3 M162.2,412.6v-27.7c0-0.4-0.4-0.6-2-0.6s-1.9,0.1-1.9,0.6v20.9c0,2-1.5,3.6-4,3.6
	c-1.7,0-2.1-2.3-2.1-3.9v-20.8c0-0.4-0.5-0.5-2.2-0.5c-1.2,0-1.7,0.1-1.7,0.6v20.6c0,5.3,2,7.6,6,7.6c1.6,0,3.1-1.2,3.9-2.6
	c0.4-0.7,0.3-0.2,0.3,0.5c0,0.4,0.1,1.1,0.1,1.6c0,0.4,0.6,0.4,1.9,0.4C162,413,162.2,413,162.2,412.6 M126.6,405.3
	c0,2.4-1.1,3.7-3,3.7c-1.8,0-3.1-1.1-3.1-3.7v-13.9c0-1.7,1.3-3.6,3.1-3.6c1.7,0,3,1.9,3,3.6V405.3L126.6,405.3z M130.6,424.5v-39.8
	c0-0.5-0.5-0.5-1.8-0.5c-1.6,0-1.9,0.1-1.9,0.6c0,0.4,0.1,1-0.4,1.3c-0.2,0.2-0.1-2-2.9-2c-3.9,0-7,2.8-7,7.3v14.3
	c0,4.9,3,7.3,7,7.3c0.5,0,1.1-0.1,2.2-0.6c0.4-0.1,0.8,0.2,0.8,1.1v11c0,0.5,0.7,0.5,2.2,0.5C130,425,130.6,425,130.6,424.5
	 M95.3,395.2c0,0.8-0.6,0.8-3.2,0.8c-2.4,0-2.9,0-2.9-0.8v-3.8c0-1.7,1.3-3.6,3.1-3.6c1.7,0,3,1.7,3,3.6L95.3,395.2L95.3,395.2z
	 M99.3,405.5c0-0.5-0.3-0.5-1.9-0.5c-1.8,0-2.1,0.1-2.1,0.4c0,2.4-1.1,3.7-3,3.7c-1.8,0-3.1-1.3-3.1-3.7v-4.5c0-0.7,0.4-1.1,0.7-1.1
	h8.2c1.2,0,1.1-0.5,1.1-1v-7.4c0-4.2-3-7.3-7-7.3c-3.9,0-7,2.8-7,7.3v14.1c0,4.8,3,7.5,7,7.5C96.3,413,99.3,410.8,99.3,405.5
	 M68.6,406c0-4.7-2.7-7.4-5.4-9.5c-2.2-1.8-3.8-3.3-3.8-5.4c0-1.5,0.8-3.2,2.5-3.2c1.3,0,2.4,1.3,2.4,3.2c0,0.3,0.4,0.5,1.9,0.5
	s2.1,0,2.1-0.4c0-3.1-1.9-7.1-6.4-7.1c-5,0-6.4,4-6.4,7.1c0,3.7,2.3,5.8,4.8,7.7c2.4,1.9,4.4,3.7,4.4,6.6c0,1.4-0.2,3.3-2.8,3.3
	c-2.2,0-2.6-1.6-2.6-3.1c0-0.4-1.1-0.3-2.2-0.3c-1.2,0-1.9,0.1-1.9,0.5c0,4.7,2.8,7,6.7,7S68.6,410.1,68.6,406"/>
<path class="st1" d="M-2.7,382.4v31.4h31.8V382H-2.7V382.4z"/>
<path class="st2" d="M-2.7,382.4v31.4h31.8V382H-2.7V382.4z"/>
<path class="st0" d="M-2.3,392.1L19,370.8l21.4,21.4L19,413.5L-2.3,392.1z"/>
<path class="st3" d="M19,413.4L8.4,402.7l21.4-21.4l10.7,10.7L19,413.4z"/>
<path class="st0" d="M19.1,383.8l8.3,8.3l-8.3,8.3l-8.3-8.3L19.1,383.8z"/>
<path class="st3" d="M19.1,383.9l4.1,4.1l-8.3,8.3l-4.1-4.1L19.1,383.9z"/>
</svg>
